<svg width="267" height="41" viewBox="0 0 267 41" fill="none" xmlns="http://www.w3.org/2000/svg">
<path fill-rule="evenodd" clip-rule="evenodd" d="M46.3531 31.7675L54.9547 40.3798L78.1206 17.2557L101.26 40.3953L109.888 31.7675L78.1206 1.3886e-06L46.3531 31.7675Z" fill="#3DAD05"/>
<path fill-rule="evenodd" clip-rule="evenodd" d="M22.8781 31.7675L31.5059 40.3953L54.6456 17.2557L77.7853 40.3953L86.4131 31.7675L54.6456 1.3886e-06L22.8781 31.7675Z" fill="#69A44B"/>
<path fill-rule="evenodd" clip-rule="evenodd" d="M-1.3886e-06 31.7675L8.62783 40.3953L31.7675 17.2557L54.9547 40.3798L63.535 31.7675L31.7675 1.3886e-06L-1.3886e-06 31.7675Z" fill="#090705"/>
<path d="M99.4496 9.58285V34H95.4468V9.58285H87.4812V5.98032H107.415V9.58285H99.4496ZM127.614 30.5176V34H116.446L111.803 31.3181V16.4677L116.446 13.7858H122.971L127.614 16.4677V25.3539H115.686V30.5176H127.614ZM115.686 17.2682V21.8715H123.731V17.2682H115.686ZM137.889 17.4684V30.5176H149.017V34H138.649L134.006 31.3181V16.6678L138.649 13.9859H149.017V17.4684H137.889ZM158.489 34H154.606V4.77947H158.489V15.427L161.331 13.7858H167.375L172.019 16.4677V34H168.136V17.2682H158.489V34ZM182.815 21.3911V34H178.813V5.98032H195.184V9.58285H182.815V17.7886H192.782V21.3911H182.815ZM202.681 25.7942V30.7177H210.727V25.7942H202.681ZM203.442 34.2001L198.798 31.5183V24.9937L203.442 22.3118H210.727V17.4684H200.8V13.9859H209.966L214.61 16.6678V34.2001H213.569L210.727 32.559L207.885 34.2001H203.442ZM232.188 17.4684H224.903V34H221.02V13.9859H223.942L224.903 15.6271L227.745 13.9859H232.188V17.4684ZM263.517 16.4677V34H259.634V17.2682H251.989V34H248.106V17.2682H240.461V34H236.578V13.7858H239.5L240.461 15.427L243.303 13.7858H247.346L251.068 15.9473L254.831 13.7858H258.874L263.517 16.4677Z" fill="black"/>
</svg>
